<svg width="734" height="154" viewBox="0 0 734 154" fill="none" xmlns="http://www.w3.org/2000/svg">
<g opacity="0.95">
<path d="M23.9457 116.346L25.9961 123.985V154H733.996V9.15668e-05L35.996 3.05176e-05C31.6245 3.05176e-05 27.9081 2.80515 26.5486 6.71359L24.3285 10.7126C22.7966 13.4718 20.6334 15.8294 18.0158 17.5925L8.82684 23.782C3.30859 27.4989 0 33.7166 0 40.3699L3.78676e-06 83.6854C4.37022e-06 90.3593 3.32904 96.5935 8.87525 100.306L15.7541 104.91C19.7793 107.604 22.69 111.668 23.9457 116.346Z" fill="url(#paint0_linear)"/>
<path d="M23.9457 116.346L25.9961 123.985V154H733.996V9.15668e-05L35.996 3.05176e-05C31.6245 3.05176e-05 27.9081 2.80515 26.5486 6.71359L24.3285 10.7126C22.7966 13.4718 20.6334 15.8294 18.0158 17.5925L8.82684 23.782C3.30859 27.4989 0 33.7166 0 40.3699L3.78676e-06 83.6854C4.37022e-06 90.3593 3.32904 96.5935 8.87525 100.306L15.7541 104.91C19.7793 107.604 22.69 111.668 23.9457 116.346Z" fill="black" fill-opacity="0.65"/>
</g>
<defs>
<linearGradient id="paint0_linear" x1="26" y1="66.3077" x2="733.996" y2="66.3077" gradientUnits="userSpaceOnUse">
<stop stop-color="#505D6D"/>
<stop offset="0.473958" stop-color="#31334A"/>
<stop offset="1" stop-color="#151821"/>
</linearGradient>
</defs>
</svg>
