<svg width="709" height="306" viewBox="0 0 709 306" fill="none" xmlns="http://www.w3.org/2000/svg">
<g opacity="0.95">
<path d="M708.996 306H119.882C113.531 306 107.417 303.583 102.784 299.238L53.8975 253.408C48.8563 248.681 45.9961 242.079 45.9961 235.169L45.996 96.6112C45.996 91.1848 44.2305 85.9057 40.966 81.5711L6.02625 35.1789C2.76166 30.8443 0.996094 25.5652 0.996094 20.1388V0H708.996V306Z" fill="url(#paint0_linear)"/>
<path d="M708.996 306H119.882C113.531 306 107.417 303.583 102.784 299.238L53.8975 253.408C48.8563 248.681 45.9961 242.079 45.9961 235.169L45.996 96.6112C45.996 91.1848 44.2305 85.9057 40.966 81.5711L6.02625 35.1789C2.76166 30.8443 0.996094 25.5652 0.996094 20.1388V0H708.996V306Z" fill="black" fill-opacity="0.65"/>
</g>
<defs>
<linearGradient id="paint0_linear" x1="0.996093" y1="131.754" x2="708.996" y2="131.754" gradientUnits="userSpaceOnUse">
<stop stop-color="#505D6D"/>
<stop offset="0.473958" stop-color="#31334A"/>
<stop offset="1" stop-color="#151821"/>
</linearGradient>
</defs>
</svg>
