<svg width="30" height="21" viewBox="0 0 30 21" fill="none" xmlns="http://www.w3.org/2000/svg">
<path d="M25.9091 2.625C25.9091 2.625 22.7823 0.269062 19.0909 0L18.7582 0.641156C22.095 1.428 23.6264 2.55281 25.2273 3.9375C22.468 2.58169 19.7455 1.3125 15 1.3125C10.2545 1.3125 7.53205 2.58169 4.77273 3.9375C6.37364 2.55281 8.19546 1.302 11.2418 0.641156L10.9091 0C7.03636 0.351094 4.09091 2.625 4.09091 2.625C4.09091 2.625 0.599318 7.49831 0 17.0625C3.51818 20.9692 8.86364 21 8.86364 21L9.98182 19.5668C8.08364 18.9315 5.94273 17.7982 4.09091 15.75C6.29864 17.3578 9.63068 19.0312 15 19.0312C20.3693 19.0312 23.7014 17.3578 25.9091 15.75C24.058 17.7982 21.917 18.9315 20.0182 19.5668L21.1364 21C21.1364 21 26.4818 20.9692 30 17.0625C29.4007 7.49831 25.9091 2.625 25.9091 2.625ZM10.5682 14.4375C9.24955 14.4375 8.18182 13.2628 8.18182 11.8125C8.18182 10.3622 9.24955 9.1875 10.5682 9.1875C11.8868 9.1875 12.9545 10.3622 12.9545 11.8125C12.9545 13.2628 11.8868 14.4375 10.5682 14.4375ZM19.4318 14.4375C18.1132 14.4375 17.0455 13.2628 17.0455 11.8125C17.0455 10.3622 18.1132 9.1875 19.4318 9.1875C20.7505 9.1875 21.8182 10.3622 21.8182 11.8125C21.8182 13.2628 20.7505 14.4375 19.4318 14.4375Z" fill=""/>
</svg>
