<svg width="25" height="24" viewBox="0 0 25 24" fill="none" xmlns="http://www.w3.org/2000/svg">
<path d="M25 11.9985V12.0285C25 12.5715 24.8466 13.0785 24.5821 13.5076L24.589 13.4956C24.3195 13.9376 23.9429 14.2876 23.4955 14.5166L23.4797 14.5236C23.5859 14.9266 23.6469 15.3886 23.6469 15.8667V15.8847V15.8837C23.6371 17.4417 23.0765 18.8648 22.1542 19.9638L22.161 19.9548C21.0911 21.2509 19.7292 22.2629 18.1765 22.891L18.1086 22.915C16.5008 23.601 14.6324 24 12.6716 24C12.6214 24 12.5713 24 12.5211 23.999H12.529C12.4867 23.999 12.4356 24 12.3854 24C10.4276 24 8.56213 23.601 6.8619 22.879L6.9563 22.915C5.33867 22.2609 3.97966 21.2499 2.92353 19.9708L2.91075 19.9548C1.99524 18.8648 1.43571 17.4417 1.42587 15.8857V15.8837C1.42587 15.8837 1.42587 15.8807 1.42587 15.8787C1.42587 15.4086 1.48094 14.9506 1.5842 14.5126L1.57633 14.5526C1.10137 14.3146 0.712937 13.9596 0.439563 13.5236L0.432679 13.5126C0.161271 13.0845 0 12.5615 0 12.0005C0 11.2235 0.308776 10.5194 0.809307 10.0094C1.29509 9.4974 1.97557 9.17938 2.72883 9.17938H2.778H2.77505H2.8134C3.5991 9.17938 4.30712 9.5224 4.7988 10.0684L4.80077 10.0704C6.81371 8.66036 9.2967 7.80533 11.9754 7.77232H11.9832L13.6019 0.382016C13.6314 0.256011 13.7071 0.151006 13.8093 0.0860036L13.8113 0.0850035C13.8841 0.0330014 13.9746 0.00200008 14.0719 0.00200008C14.1083 0.00200008 14.1437 0.00600025 14.1771 0.0140006L14.1742 0.0130005L19.3211 1.16205C19.4922 0.809034 19.7489 0.523022 20.0655 0.324014L20.0743 0.319013C20.388 0.119005 20.7696 0 21.1787 0C21.7539 0 22.2761 0.23501 22.6547 0.617026C23.0333 0.986041 23.2683 1.50506 23.2683 2.08009V2.11609V2.11409V2.14409C23.2683 2.72211 23.0333 3.24414 22.6547 3.61615L22.6537 3.61715C22.2761 4.00317 21.7529 4.24118 21.1747 4.24118C20.6004 4.24118 20.0802 4.00517 19.7026 3.62415C19.328 3.25314 19.0959 2.73611 19.0959 2.16309C19.0959 2.15009 19.0959 2.13809 19.0959 2.12509V2.12709L14.4367 1.07704L12.9863 7.77132C15.6876 7.79133 18.1912 8.63636 20.27 10.0714L20.2238 10.0414C20.7283 9.5074 21.4373 9.17638 22.221 9.17638C22.988 9.17638 23.6823 9.4934 24.1848 10.0064C24.6853 10.5024 24.9961 11.1955 24.9961 11.9615V12.0005V11.9985H25ZM5.83527 14.8206V14.8526C5.83527 15.4286 6.06734 15.9497 6.442 16.3237C6.80486 16.7087 7.31523 16.9477 7.88066 16.9477H7.91606H7.91409C9.06954 16.9457 10.0047 15.9947 10.0067 14.8196C10.0067 14.8096 10.0067 14.7976 10.0067 14.7856C10.0067 14.2106 9.77166 13.6916 9.39307 13.3236L9.39209 13.3226C9.02431 12.9415 8.51198 12.7055 7.94556 12.7055C7.93475 12.7055 7.92294 12.7055 7.91213 12.7055H7.91409C6.77045 12.7155 5.8451 13.6556 5.83527 14.8186V14.8196V14.8206ZM17.1331 19.8568C17.2275 19.7638 17.2865 19.6328 17.2865 19.4878C17.2865 19.3428 17.2275 19.2128 17.1331 19.1188C17.0476 19.0308 16.9296 18.9768 16.7978 18.9768C16.7929 18.9768 16.7879 18.9768 16.784 18.9768H16.785C16.783 18.9768 16.7801 18.9768 16.7771 18.9768C16.6395 18.9768 16.5156 19.0308 16.4221 19.1188C15.9659 19.5508 15.3926 19.8608 14.7563 19.9948L14.7337 19.9988C14.064 20.1788 13.295 20.2828 12.5015 20.2828C11.7079 20.2828 10.9399 20.1788 10.2063 19.9848L10.2692 19.9988C9.60941 19.8618 9.03513 19.5508 8.57688 19.1168L8.57885 19.1188C8.48641 19.0308 8.36152 18.9768 8.22385 18.9768C8.2209 18.9768 8.21795 18.9768 8.21599 18.9768C8.21304 18.9768 8.2091 18.9768 8.20517 18.9768C8.07438 18.9768 7.9554 19.0308 7.86984 19.1188C7.77347 19.2048 7.71251 19.3308 7.71251 19.4708V19.4808V19.4848C7.71251 19.6308 7.77249 19.7628 7.86984 19.8568C8.32416 20.2918 8.87779 20.6239 9.49239 20.8139L9.52189 20.8219C10.0146 21.0079 10.5908 21.1539 11.1887 21.2359L11.231 21.2409C11.6676 21.2836 12.0904 21.3049 12.4995 21.3049C12.9086 21.3049 13.3314 21.2836 13.768 21.2409C14.4072 21.1549 14.9845 21.0079 15.5342 20.8039L15.4771 20.8229C16.1222 20.6249 16.6768 20.2938 17.1341 19.8568L17.1321 19.8588L17.1331 19.8568ZM17.0918 16.9487H17.1252C17.6907 16.9487 18.201 16.7097 18.5629 16.3247L18.5639 16.3237C18.9386 15.9497 19.1706 15.4286 19.1706 14.8526C19.1706 14.8416 19.1706 14.8296 19.1706 14.8186V14.8206C19.1608 13.6576 18.2364 12.7165 17.0928 12.7065H17.0918C17.082 12.7065 17.0712 12.7065 17.0603 12.7065C16.4939 12.7065 15.9816 12.9425 15.6138 13.3236C15.2352 13.6926 15.0002 14.2116 15.0002 14.7866V14.8226V14.8206C15.0022 15.9957 15.9373 16.9467 17.0928 16.9487H17.0918Z" fill=""/>
</svg>
