<svg width="28" height="22" viewBox="0 0 28 22" fill="none" xmlns="http://www.w3.org/2000/svg">
<path d="M28 2.60585C26.9467 3.05009 25.8328 3.34535 24.6925 3.48253C25.8942 2.79304 26.7927 1.70125 27.2176 0.414027C26.0927 1.05917 24.8619 1.51354 23.5786 1.75749C22.7915 0.944351 21.7697 0.37899 20.6459 0.134916C19.5221 -0.109158 18.3483 -0.0206543 17.2773 0.388921C16.2062 0.798495 15.2873 1.51019 14.6401 2.43148C13.9929 3.35277 13.6473 4.44103 13.6483 5.55477C13.6439 5.97976 13.6885 6.40391 13.7814 6.81934C11.4978 6.71108 9.26347 6.13799 7.2246 5.13755C5.18572 4.13711 3.38816 2.73183 1.94944 1.0136C1.21078 2.23462 0.98188 3.68221 1.30945 5.06088C1.63702 6.43955 2.49637 7.64536 3.71209 8.43221C2.80383 8.40848 1.91478 8.174 1.11985 7.74852V7.809C1.12135 9.09079 1.57948 10.3329 2.41714 11.3264C3.25479 12.3198 4.42082 13.0039 5.71895 13.2634C5.22786 13.3886 4.72173 13.4501 4.21387 13.4462C3.84921 13.4524 3.48491 13.4206 3.12728 13.3514C3.49828 14.453 4.21329 15.4163 5.17387 16.1088C6.13446 16.8012 7.29339 17.1887 8.49115 17.2179C6.45928 18.7544 3.95342 19.588 1.37402 19.5854C0.914792 19.5883 0.455847 19.5628 0 19.509C2.62477 21.1445 5.68335 22.0097 8.80587 21.9999C19.3687 21.9999 25.1439 13.5391 25.1439 6.2052C25.1439 5.95971 25.1351 5.72301 25.1229 5.48769C26.2551 4.70419 27.2301 3.7276 28 2.60585Z" fill=""/>
</svg>
