<svg width="250" height="51" viewBox="0 0 250 51" fill="none" xmlns="http://www.w3.org/2000/svg">
<path d="M14.898 24.9282C14.8423 25.8988 15.1741 26.8518 15.8207 27.5778C16.4672 28.3038 17.3755 28.7435 18.346 28.8002H18.546C19.2608 28.7994 19.9597 28.5894 20.5564 28.196C21.1532 27.8026 21.6217 27.2431 21.9041 26.5865C22.1866 25.9299 22.2706 25.2049 22.1457 24.5012C22.0209 23.7974 21.6928 23.1455 21.2018 22.6261C20.7108 22.1067 20.0785 21.7423 19.3828 21.5781C18.6872 21.4139 17.9587 21.457 17.2872 21.702C16.6158 21.9471 16.0308 22.3833 15.6044 22.957C15.1781 23.5307 14.929 24.2166 14.888 24.9302L14.898 24.9282Z" fill=""/>
<path d="M1.24994 24.0001C1.01661 23.9871 0.784637 24.0435 0.583348 24.1622C0.382058 24.281 0.220485 24.4567 0.119045 24.6672C0.0176063 24.8778 -0.019145 25.1137 0.013436 25.3451C0.046017 25.5765 0.146468 25.7931 0.302094 25.9674C0.45772 26.1418 0.661537 26.2661 0.887785 26.3246C1.11403 26.3832 1.35256 26.3733 1.57322 26.2963C1.79388 26.2194 1.98677 26.0787 2.12751 25.8921C2.26825 25.7056 2.35053 25.4815 2.36394 25.2481C2.37313 25.093 2.35156 24.9375 2.30049 24.7907C2.24941 24.6439 2.16983 24.5086 2.06631 24.3926C1.9628 24.2767 1.83739 24.1823 1.69729 24.1149C1.55719 24.0476 1.40516 24.0086 1.24994 24.0001Z" fill=""/>
<path d="M14.666 3.68573C14.8738 3.57901 15.0454 3.41319 15.1592 3.20916C15.273 3.00512 15.3238 2.77199 15.3054 2.5391C15.287 2.30621 15.2001 2.08397 15.0556 1.90037C14.9112 1.71677 14.7156 1.58 14.4936 1.50729C14.2716 1.43458 14.033 1.42918 13.8079 1.49176C13.5829 1.55433 13.3813 1.6821 13.2287 1.85897C13.0761 2.03584 12.9792 2.25391 12.9502 2.48573C12.9213 2.71755 12.9615 2.95275 13.066 3.16173C13.1362 3.30161 13.2334 3.42621 13.3519 3.52836C13.4705 3.63051 13.6081 3.70817 13.7569 3.75688C13.9056 3.80559 14.0625 3.82438 14.2185 3.81217C14.3746 3.79996 14.5266 3.75699 14.666 3.68573Z" fill=""/>
<path d="M18.3799 10.1618C18.7027 9.99896 18.9699 9.74412 19.1478 9.42945C19.3258 9.11479 19.4064 8.75444 19.3796 8.39395C19.3528 8.03346 19.2196 7.68902 18.9971 7.40417C18.7745 7.11932 18.4725 6.90686 18.1292 6.79364C17.7859 6.68042 17.4167 6.67152 17.0684 6.76808C16.72 6.86463 16.4081 7.0623 16.1721 7.3361C15.9361 7.60989 15.7865 7.94752 15.7423 8.3063C15.6982 8.66508 15.7614 9.0289 15.9239 9.35177C16.0319 9.56628 16.1812 9.7574 16.3631 9.91422C16.545 10.071 16.756 10.1905 16.9841 10.2657C17.2122 10.3409 17.4528 10.3704 17.6923 10.3526C17.9319 10.3348 18.1655 10.2699 18.3799 10.1618Z" fill=""/>
<path d="M5.88197 14.6159C6.13091 14.7796 6.42282 14.8658 6.72076 14.8635C7.0187 14.8613 7.30928 14.7707 7.55574 14.6033C7.80219 14.4359 7.99344 14.1991 8.10529 13.9229C8.21714 13.6468 8.24456 13.3436 8.18409 13.0519C8.12361 12.7601 7.97795 12.4929 7.76554 12.2839C7.55314 12.075 7.28352 11.9338 6.99082 11.8781C6.69812 11.8224 6.39548 11.8548 6.1212 11.9712C5.84692 12.0876 5.61332 12.2827 5.44997 12.5319C5.23118 12.8656 5.15379 13.2725 5.23479 13.6633C5.31578 14.054 5.54855 14.3966 5.88197 14.6159Z" fill=""/>
<path d="M8.10787 23.334C7.74698 23.3136 7.38815 23.4007 7.07675 23.5842C6.76534 23.7677 6.51534 24.0395 6.35833 24.365C6.20133 24.6906 6.14437 25.0555 6.19466 25.4134C6.24495 25.7713 6.40024 26.1064 6.64088 26.3761C6.88153 26.6458 7.19673 26.8381 7.54665 26.9287C7.89657 27.0193 8.2655 27.0041 8.6068 26.8851C8.94811 26.7661 9.24646 26.5486 9.46416 26.26C9.68186 25.9715 9.80912 25.6248 9.82986 25.264C9.85717 24.7797 9.69114 24.3045 9.36826 23.9426C9.04538 23.5807 8.59205 23.3618 8.10787 23.334Z" fill=""/>
<path d="M6.08201 35.6238C5.81623 35.7581 5.59623 35.9683 5.44984 36.2276C5.30345 36.4869 5.23722 36.7839 5.25955 37.0808C5.28187 37.3778 5.39174 37.6615 5.57526 37.896C5.75877 38.1305 6.00771 38.3054 6.29059 38.3985C6.57347 38.4916 6.8776 38.4987 7.16452 38.419C7.45145 38.3392 7.7083 38.1762 7.9026 37.9505C8.0969 37.7248 8.21993 37.4466 8.25614 37.151C8.29234 36.8554 8.2401 36.5557 8.10601 36.2898C8.01691 36.1131 7.89386 35.9557 7.7439 35.8266C7.59394 35.6975 7.42 35.5992 7.23203 35.5374C7.04406 35.4755 6.84575 35.4513 6.64842 35.4662C6.45109 35.481 6.25862 35.5346 6.08201 35.6238Z" fill=""/>
<path d="M13.188 19.5559C13.5439 19.7892 13.9611 19.9117 14.3867 19.9079C14.8123 19.9041 15.2272 19.7742 15.5789 19.5347C15.9307 19.2951 16.2035 18.9566 16.3629 18.562C16.5223 18.1674 16.5611 17.7343 16.4744 17.3177C16.3877 16.901 16.1794 16.5194 15.8759 16.2211C15.5723 15.9228 15.1871 15.7212 14.769 15.6418C14.3509 15.5624 13.9186 15.6088 13.5268 15.775C13.135 15.9413 12.8014 16.22 12.568 16.5759C12.4127 16.8122 12.3056 17.0768 12.2527 17.3545C12.1998 17.6323 12.2023 17.9177 12.2599 18.1945C12.3174 18.4713 12.4291 18.734 12.5883 18.9676C12.7476 19.2013 12.9514 19.4012 13.188 19.5559Z" fill=""/>
<path d="M35.732 10.018C36.0351 10.2157 36.39 10.3191 36.7518 10.3152C37.1136 10.3112 37.4662 10.2001 37.7649 9.99576C38.0636 9.79148 38.295 9.50322 38.4299 9.16744C38.5648 8.83166 38.5971 8.46342 38.5227 8.10927C38.4484 7.75513 38.2707 7.43098 38.0122 7.17779C37.7536 6.92461 37.4258 6.75376 37.0702 6.68684C36.7146 6.61992 36.3471 6.65994 36.0142 6.80183C35.6813 6.94372 35.398 7.18112 35.2 7.48402C35.0682 7.68522 34.9773 7.91046 34.9327 8.14682C34.8881 8.38319 34.8906 8.62604 34.94 8.86145C34.9894 9.09685 35.0848 9.32019 35.2207 9.51866C35.3566 9.71713 35.5304 9.88683 35.732 10.018Z" fill=""/>
<path d="M39.484 3.56192C39.6799 3.69034 39.9095 3.75775 40.1437 3.75565C40.3779 3.75354 40.6063 3.68201 40.7998 3.55009C40.9934 3.41818 41.1435 3.23181 41.2311 3.01458C41.3187 2.79734 41.3399 2.559 41.2921 2.32971C41.2442 2.10041 41.1294 1.89047 40.9621 1.72644C40.7949 1.56242 40.5828 1.45168 40.3526 1.40824C40.1224 1.36479 39.8846 1.3906 39.6691 1.4824C39.4535 1.57419 39.2701 1.72785 39.142 1.92392C38.9703 2.18655 38.9099 2.50656 38.974 2.81369C39.0382 3.12081 39.2216 3.38992 39.484 3.56192Z" fill=""/>
<path d="M36.02 21.444C35.54 21.4164 35.0593 21.4837 34.6053 21.6419C34.1513 21.8001 33.7329 22.0461 33.374 22.366C32.6491 23.0121 32.2107 23.9196 32.155 24.889C32.0993 25.8584 32.4309 26.8102 33.077 27.535C33.7231 28.2598 34.6306 28.6983 35.6 28.754C35.67 28.754 35.742 28.754 35.812 28.754C36.5181 28.7537 37.2091 28.549 37.8016 28.1648C38.3941 27.7806 38.8627 27.2332 39.1511 26.5886C39.4395 25.944 39.5352 25.2298 39.4268 24.532C39.3183 23.8342 39.0103 23.1827 38.54 22.656C38.2214 22.2968 37.8345 22.0047 37.4019 21.7966C36.9692 21.5885 36.4994 21.4686 36.02 21.444Z" fill=""/>
<path d="M19.582 19.302C19.8858 19.9091 20.3531 20.4192 20.9312 20.775C21.5092 21.1308 22.1752 21.3182 22.854 21.316C23.4798 21.3162 24.0952 21.1559 24.6415 20.8506C25.1878 20.5452 25.6467 20.105 25.9744 19.5718C26.3022 19.0387 26.4878 18.4305 26.5137 17.8052C26.5395 17.1799 26.4046 16.5584 26.122 16C25.816 15.3958 25.3479 14.8887 24.77 14.5354C24.1921 14.1822 23.5273 13.9968 22.85 14C22.2261 14.0011 21.6128 14.1616 21.0683 14.4662C20.5238 14.7708 20.0662 15.2094 19.7388 15.7406C19.4114 16.2717 19.2252 16.8776 19.1978 17.5009C19.1703 18.1242 19.3026 18.7442 19.582 19.302Z" fill=""/>
<path d="M48.282 14.612C48.5478 14.4778 48.7679 14.2679 48.9144 14.0087C49.061 13.7495 49.1274 13.4526 49.1053 13.1557C49.0832 12.8588 48.9736 12.575 48.7903 12.3404C48.607 12.1057 48.3582 11.9307 48.0755 11.8374C47.7927 11.744 47.4886 11.7366 47.2017 11.8161C46.9147 11.8955 46.6577 12.0582 46.4632 12.2837C46.2687 12.5092 46.1454 12.7872 46.1089 13.0827C46.0723 13.3782 46.1242 13.6779 46.258 13.944C46.438 14.3008 46.7522 14.5716 47.1317 14.6968C47.5112 14.8221 47.9249 14.7916 48.282 14.612Z" fill=""/>
<path d="M39 15.7781C38.6198 15.9695 38.305 16.2694 38.0953 16.6398C37.8856 17.0101 37.7904 17.4344 37.8218 17.8588C37.8533 18.2833 38.0098 18.6889 38.2718 19.0244C38.5337 19.3599 38.8892 19.6102 39.2934 19.7436C39.6976 19.877 40.1322 19.8876 40.5424 19.774C40.9526 19.6604 41.3199 19.4277 41.5978 19.1053C41.8757 18.783 42.0518 18.3854 42.1039 17.963C42.1559 17.5406 42.0814 17.1122 41.89 16.7321C41.7631 16.4795 41.5876 16.2544 41.3736 16.0697C41.1596 15.885 40.9113 15.7443 40.6428 15.6557C40.3744 15.5671 40.0911 15.5323 39.8092 15.5533C39.5273 15.5743 39.2523 15.6507 39 15.7781Z" fill=""/>
<path d="M27.044 3.01005C27.3414 3.02699 27.6372 2.95534 27.8939 2.80415C28.1506 2.65297 28.3566 2.42905 28.4861 2.16072C28.6155 1.89239 28.6624 1.5917 28.6209 1.2967C28.5794 1.00169 28.4513 0.725625 28.2529 0.503412C28.0545 0.2812 27.7946 0.12283 27.5062 0.0483341C27.2177 -0.0261616 26.9137 -0.0134353 26.6325 0.0849032C26.3513 0.183242 26.1055 0.362774 25.9264 0.60079C25.7472 0.838806 25.6427 1.12461 25.626 1.42205C25.6036 1.82063 25.7404 2.21179 26.0063 2.50956C26.2722 2.80734 26.6454 2.98735 27.044 3.01005Z" fill=""/>
<path d="M27.028 12.4881C27.4528 12.5119 27.8752 12.4093 28.2417 12.1931C28.6082 11.977 28.9024 11.657 29.0871 11.2737C29.2718 10.8904 29.3387 10.4609 29.2794 10.0396C29.2201 9.61821 29.0372 9.2239 28.7539 8.90646C28.4705 8.58902 28.0994 8.36271 27.6875 8.25612C27.2756 8.14953 26.8413 8.16744 26.4395 8.30761C26.0378 8.44777 25.6866 8.70389 25.4304 9.04359C25.1741 9.38329 25.0243 9.79133 25 10.2161C24.9677 10.7863 25.1633 11.3459 25.5436 11.772C25.9239 12.198 26.4578 12.4556 27.028 12.4881Z" fill=""/>
<path d="M15.368 34.4559C15.7481 34.2643 16.0628 33.9642 16.2724 33.5937C16.4819 33.2232 16.5769 32.7989 16.5452 32.3744C16.5136 31.9499 16.3568 31.5443 16.0947 31.209C15.8325 30.8736 15.4768 30.6235 15.0725 30.4904C14.6682 30.3572 14.2335 30.3469 13.8234 30.4608C13.4132 30.5747 13.0461 30.8077 12.7683 31.1303C12.4906 31.4528 12.3148 31.8505 12.2631 32.273C12.2114 32.6956 12.2862 33.1239 12.478 33.5039C12.7351 34.0133 13.1839 34.3997 13.7259 34.5783C14.2678 34.7568 14.8585 34.7128 15.368 34.4559Z" fill=""/>
<path d="M28.4179 15.6279C27.9716 16.309 27.7652 17.1195 27.8313 17.9312C27.8975 18.7428 28.2324 19.5092 28.7831 20.1091C29.3339 20.709 30.0689 21.108 30.872 21.2432C31.675 21.3783 32.5002 21.2417 33.2169 20.855C33.9336 20.4684 34.5009 19.8538 34.829 19.1085C35.1571 18.3632 35.2273 17.5297 35.0284 16.74C34.8295 15.9503 34.3729 15.2495 33.731 14.7485C33.089 14.2475 32.2982 13.9749 31.4839 13.9739C30.8757 13.9735 30.277 14.1244 29.7418 14.4132C29.2065 14.7019 28.7515 15.1194 28.4179 15.6279Z" fill=""/>
<path d="M34.7819 30.9339C34.4887 30.3524 34.0456 29.8597 33.4984 29.5066C32.9512 29.1535 32.3197 28.9528 31.6691 28.9252C31.0184 28.8976 30.3722 29.0441 29.797 29.3496C29.2219 29.655 28.7387 30.1085 28.3973 30.663C28.0558 31.2176 27.8686 31.8532 27.8548 32.5043C27.841 33.1554 28.0011 33.7984 28.3187 34.3669C28.6363 34.9354 29.0999 35.4089 29.6616 35.7385C30.2232 36.0681 30.8627 36.2419 31.5139 36.2419C32.0868 36.2379 32.651 36.101 33.1619 35.8419C34.0262 35.4044 34.6819 34.6423 34.9855 33.7224C35.2891 32.8026 35.2159 31.7999 34.7819 30.9339Z" fill=""/>
<path d="M41.178 30.678C40.8222 30.4444 40.4051 30.3216 39.9795 30.325C39.5539 30.3285 39.1388 30.4581 38.7869 30.6974C38.4349 30.9367 38.1618 31.2751 38.0021 31.6696C37.8425 32.0642 37.8034 32.4972 37.8898 32.9139C37.9762 33.3307 38.1843 33.7124 38.4877 34.011C38.7911 34.3095 39.1762 34.5113 39.5943 34.5909C40.0124 34.6706 40.4448 34.6244 40.8366 34.4584C41.2285 34.2923 41.5624 34.0137 41.796 33.6579C42.1081 33.1805 42.2184 32.5988 42.1025 32.0403C41.9867 31.4817 41.6542 30.9919 41.178 30.678Z" fill=""/>
<path d="M48.1859 25.18C48.2063 24.8191 48.1192 24.4603 47.9357 24.1489C47.7522 23.8375 47.4804 23.5875 47.1548 23.4305C46.8293 23.2735 46.4644 23.2165 46.1065 23.2668C45.7486 23.3171 45.4136 23.4724 45.1438 23.713C44.8741 23.9537 44.6818 24.2689 44.5912 24.6188C44.5006 24.9687 44.5158 25.3376 44.6348 25.679C44.7538 26.0203 44.9713 26.3186 45.2599 26.5363C45.5484 26.754 45.8951 26.8813 46.2559 26.902C46.7401 26.9293 47.2154 26.7633 47.5773 26.4404C47.9392 26.1175 48.1581 25.6642 48.1859 25.18Z" fill=""/>
<path d="M53.25 23.8782C53.0162 23.8647 52.7837 23.9209 52.5818 24.0396C52.3799 24.1583 52.2178 24.3342 52.1159 24.545C52.014 24.7559 51.9769 24.9922 52.0093 25.2241C52.0417 25.456 52.1422 25.6731 52.298 25.848C52.4538 26.0228 52.658 26.1475 52.8846 26.2063C53.1113 26.2651 53.3503 26.2553 53.5715 26.1783C53.7926 26.1013 53.9859 25.9604 54.127 25.7734C54.2681 25.5865 54.3505 25.362 54.364 25.1282C54.3815 24.8148 54.274 24.5073 54.0652 24.273C53.8564 24.0387 53.5633 23.8967 53.25 23.8782Z" fill=""/>
<path d="M48.4819 35.618C48.2328 35.4548 47.9409 35.3692 47.6431 35.3719C47.3453 35.3746 47.055 35.4655 46.8089 35.6332C46.5627 35.8009 46.3719 36.0377 46.2603 36.3139C46.1488 36.59 46.1217 36.893 46.1823 37.1846C46.243 37.4761 46.3887 37.7432 46.6011 37.9519C46.8135 38.1607 47.0831 38.3018 47.3756 38.3574C47.6682 38.4129 47.9707 38.3805 48.2449 38.2643C48.519 38.148 48.7525 37.953 48.9159 37.704C49.0245 37.5386 49.0994 37.3533 49.1363 37.159C49.1732 36.9646 49.1715 36.7648 49.1312 36.5711C49.0909 36.3773 49.0128 36.1935 48.9014 36.0299C48.79 35.8664 48.6474 35.7264 48.4819 35.618Z" fill=""/>
<path d="M14.882 46.6719C14.6862 46.5434 14.4567 46.4759 14.2226 46.4778C13.9885 46.4798 13.7602 46.5511 13.5665 46.6828C13.3729 46.8144 13.2227 47.0006 13.1349 47.2176C13.047 47.4346 13.0255 47.6729 13.0731 47.9021C13.1206 48.1314 13.235 48.3414 13.4019 48.5057C13.5688 48.6699 13.7806 48.781 14.0106 48.8248C14.2406 48.8687 14.4785 48.8433 14.6941 48.752C14.9097 48.6607 15.0934 48.5076 15.222 48.3119C15.3074 48.1819 15.3663 48.0363 15.3954 47.8835C15.4246 47.7307 15.4233 47.5737 15.3917 47.4214C15.3602 47.2691 15.2989 47.1245 15.2114 46.9959C15.124 46.8673 15.012 46.7572 14.882 46.6719Z" fill=""/>
<path d="M39.6979 46.548C39.4888 46.6535 39.3156 46.8185 39.2003 47.0223C39.085 47.2262 39.0327 47.4596 39.0501 47.6932C39.0675 47.9267 39.1537 48.1499 39.2979 48.3344C39.4421 48.5189 39.6378 48.6565 39.8602 48.7298C40.0827 48.8031 40.3218 48.8088 40.5475 48.7462C40.7731 48.6836 40.9752 48.5554 41.128 48.378C41.2808 48.2005 41.3776 47.9817 41.4061 47.7493C41.4345 47.5168 41.3934 47.2811 41.2879 47.072C41.2181 46.9331 41.1216 46.8092 41.0038 46.7077C40.886 46.6061 40.7494 46.5287 40.6017 46.48C40.454 46.4314 40.2981 46.4123 40.143 46.424C39.9879 46.4357 39.8367 46.4778 39.6979 46.548Z" fill=""/>
<path d="M25.9459 34.6001C26.3923 33.9189 26.5987 33.1083 26.5325 32.2965C26.4663 31.4848 26.1312 30.7183 25.5803 30.1185C25.0295 29.5186 24.2943 29.1196 23.4911 28.9847C22.6879 28.8497 21.8627 28.9865 21.146 29.3734C20.4294 29.7603 19.8622 30.3751 19.5343 31.1206C19.2064 31.8661 19.1366 32.6997 19.3358 33.4894C19.535 34.2791 19.992 34.9798 20.6342 35.4805C21.2765 35.9813 22.0675 36.2535 22.8819 36.2541C23.4901 36.2562 24.0892 36.1059 24.6244 35.817C25.1596 35.5281 25.6139 35.1097 25.9459 34.6001Z" fill=""/>
<path d="M18.632 40.2182C18.3295 40.0203 17.9751 39.9165 17.6137 39.92C17.2522 39.9235 16.8999 40.034 16.6013 40.2377C16.3026 40.4414 16.0711 40.729 15.9359 41.0642C15.8007 41.3994 15.7679 41.7672 15.8417 42.1211C15.9155 42.4749 16.0925 42.799 16.3505 43.0522C16.6084 43.3055 16.9356 43.4766 17.2907 43.5439C17.6459 43.6113 18.013 43.5718 18.3457 43.4305C18.6784 43.2892 18.9618 43.0525 19.16 42.7502C19.4254 42.3443 19.5189 41.8497 19.4199 41.3749C19.3209 40.9002 19.0375 40.4841 18.632 40.2182Z" fill=""/>
<path d="M27.166 47.2241C26.8686 47.2072 26.573 47.2788 26.3163 47.4299C26.0597 47.5811 25.8536 47.8049 25.7242 48.0731C25.5947 48.3413 25.5477 48.6419 25.5891 48.9368C25.6304 49.2317 25.7583 49.5078 25.9565 49.73C26.1547 49.9523 26.4144 50.1108 26.7027 50.1855C26.991 50.2602 27.295 50.2478 27.5762 50.1497C27.8574 50.0517 28.1033 49.8725 28.2827 49.6348C28.462 49.397 28.5669 49.1114 28.584 48.8141C28.5953 48.6166 28.5677 48.4188 28.5025 48.2319C28.4374 48.0451 28.3361 47.873 28.2044 47.7253C28.0727 47.5776 27.9133 47.4574 27.7351 47.3714C27.5569 47.2854 27.3635 47.2353 27.166 47.2241Z" fill=""/>
<path d="M27.182 37.7481C26.7567 37.7223 26.3334 37.8232 25.9656 38.0381C25.5978 38.2531 25.3021 38.5723 25.1159 38.9555C24.9297 39.3386 24.8614 39.7684 24.9196 40.1904C24.9779 40.6124 25.16 41.0076 25.4431 41.3259C25.7261 41.6443 26.0973 41.8715 26.5095 41.9788C26.9218 42.0861 27.3566 42.0686 27.7589 41.9285C28.1612 41.7885 28.5129 41.5322 28.7694 41.1921C29.026 40.852 29.1758 40.4434 29.1999 40.0181C29.2327 39.4496 29.0387 38.8914 28.6604 38.4658C28.282 38.0402 27.7504 37.7821 27.182 37.7481Z" fill=""/>
<path d="M35.984 40.072C35.6611 40.2358 35.394 40.4918 35.2166 40.8075C35.0393 41.1232 34.9595 41.4845 34.9875 41.8455C35.0156 42.2066 35.1501 42.5512 35.374 42.8357C35.598 43.1203 35.9013 43.332 36.2457 43.4441C36.59 43.5562 36.9599 43.5636 37.3085 43.4653C37.657 43.3671 37.9686 43.1677 38.2037 42.8923C38.4389 42.6169 38.587 42.2779 38.6295 41.9183C38.6719 41.5587 38.6067 41.1945 38.442 40.872C38.3333 40.6579 38.1835 40.4673 38.0011 40.3112C37.8187 40.1551 37.6072 40.0365 37.3789 39.9622C37.1506 39.8879 36.9099 39.8593 36.6705 39.8782C36.4312 39.897 36.1979 39.9629 35.984 40.072Z" fill=""/>
<path d="M76.3719 16.4703C79.9159 16.4703 82.3979 18.4183 82.3979 22.0343H87.0399C87.0399 15.6903 82.3619 12.6343 76.3019 12.6343C68.8579 12.6343 64.5339 16.6763 64.5339 25.2183C64.5339 33.9723 68.8579 37.8003 76.3019 37.8003C82.4339 37.8003 87.0399 34.8243 87.0399 28.4783H82.5739C82.5739 32.0223 80.1279 33.9723 76.3739 33.9723C71.4459 33.9723 69.1739 31.2423 69.1739 25.5723V24.8643C69.1779 19.3043 71.4799 16.4703 76.3719 16.4703Z" fill=""/>
<path d="M99.314 13.0659L89.85 37.3819H94.53L96.478 32.0999H107.6L109.6 37.3819H114.492L105.022 13.0659H99.314ZM97.896 28.2659L100.378 21.5999C100.874 20.2899 101.76 17.4539 101.938 16.9579H102.114C102.292 17.4539 103.178 20.3239 103.674 21.5999L106.154 28.2639L97.896 28.2659Z" fill=""/>
<path d="M139.8 20.4379C139.8 15.9379 137.212 13.0659 131.86 13.0659H119.028V37.3819H123.566V27.9819H131.114L135.714 37.3819H140.676L135.476 27.2799C138.346 26.1459 139.8 23.7359 139.8 20.4379ZM131.504 24.1599H123.566V16.9299H131.504C133.95 16.9299 135.226 18.2419 135.226 20.4379C135.226 22.7439 133.844 24.1599 131.504 24.1599Z" fill=""/>
<path d="M155.716 13.0659H146V37.3819H155.712C163.048 37.3819 167.512 33.5539 167.512 25.2239C167.512 16.8939 163.052 13.0659 155.716 13.0659ZM162.876 25.5779C162.84 30.8959 160.324 33.5179 155.716 33.5179H150.542V16.9299H155.716C160.316 16.9299 162.876 19.5539 162.876 24.8699V25.5779Z" fill=""/>
<path d="M179.4 13.0659L169.932 37.3819H174.61L176.56 32.0999H187.69L189.674 37.3819H194.566L185.102 13.0659H179.4ZM177.982 28.2659L180.46 21.5999C180.956 20.2899 181.842 17.4539 182.02 16.9579H182.2C182.376 17.4539 183.264 20.3239 183.76 21.5999L186.24 28.2639L177.982 28.2659Z" fill=""/>
<path d="M215.308 27.5279C215.308 27.9879 215.378 29.2279 215.378 29.4419L215.202 29.5119C215.096 29.3719 214.386 28.1299 214.002 27.5639L203.44 13.0659H199.11V37.3819H203.47V22.8139C203.47 22.2139 203.398 21.0419 203.398 20.8639L203.576 20.7579C203.682 20.8999 204.214 21.9279 204.776 22.7439L215.41 37.3819H219.662V13.0659H215.304V27.5279H215.308Z" fill=""/>
<path d="M237.736 12.6421C230.116 12.6421 225.508 16.6821 225.508 25.2241C225.508 33.7661 230.108 37.8061 237.736 37.8061C245.364 37.8061 250 33.7661 250 25.2241C250 16.6821 245.356 12.6421 237.736 12.6421ZM245.356 25.6141C245.356 31.1781 242.698 33.9781 237.736 33.9781C232.81 33.9781 230.152 31.1781 230.152 25.6141V24.8701C230.152 19.3041 232.846 16.4701 237.736 16.4701C242.664 16.4701 245.356 19.3041 245.356 24.8701V25.6141Z" fill=""/>
</svg>
