<svg width="192" height="64" viewBox="0 0 192 64" fill="none" xmlns="http://www.w3.org/2000/svg">
<path d="M35.8008 11.1185C35.8008 11.2716 35.795 11.4233 35.7834 11.5734C35.7238 12.3553 36.0098 13.1682 36.6826 13.5603L42.4884 16.9435C43.1614 17.3357 44.002 17.1788 44.6422 16.7341C45.5744 16.0866 46.7038 15.7075 47.921 15.7075C51.1192 15.7075 53.7116 18.3243 53.7116 21.5522C53.7116 24.78 51.1192 27.3968 47.921 27.3968C44.723 27.3968 42.1304 24.78 42.1304 21.5522C42.1304 21.3998 42.1362 21.2486 42.1476 21.0992C42.207 20.3176 41.921 19.5052 41.2484 19.1132L35.4402 15.7286C34.7674 15.3365 33.9274 15.4931 33.2872 15.9373C32.3556 16.5837 31.2272 16.9621 30.0112 16.9621C28.7952 16.9621 27.6668 16.5837 26.7352 15.9373C26.095 15.4931 25.255 15.3365 24.582 15.7286L18.774 19.1131C18.1014 19.5051 17.8154 20.3174 17.8747 21.099C17.8861 21.2486 17.8918 21.3996 17.8918 21.552C17.8918 23.8768 16.5469 25.8846 14.5994 26.826C13.8979 27.165 13.342 27.8216 13.342 28.6066V35.3674C13.342 36.1524 13.8979 36.809 14.5994 37.148C16.5468 38.0894 17.8917 40.0972 17.8917 42.422C17.8917 42.5766 17.8857 42.73 17.874 42.8818C17.8137 43.6642 18.0994 44.478 18.7729 44.8706L24.5818 48.2556C25.2546 48.6476 26.0948 48.491 26.735 48.0468C27.6666 47.4002 28.7952 47.0218 30.0112 47.0218C31.2274 47.0218 32.3558 47.4002 33.2874 48.0466C33.9276 48.491 34.7678 48.6476 35.4406 48.2554L41.2492 44.8706C41.9226 44.4782 42.2084 43.6644 42.148 42.8818C42.1364 42.7302 42.1304 42.577 42.1304 42.4222C42.1304 39.1944 44.723 36.5776 47.921 36.5776C51.1192 36.5776 53.7116 39.1944 53.7116 42.4222C53.7116 45.6502 51.1192 48.2668 47.921 48.2668C46.7062 48.2668 45.5788 47.8894 44.6476 47.2442C44.0076 46.8006 43.1682 46.6446 42.496 47.0364L36.6828 50.4238C36.01 50.816 35.724 51.6288 35.7836 52.4106C35.7952 52.5608 35.801 52.7124 35.801 52.8654C35.801 56.0928 33.2088 58.709 30.0112 58.709C26.8136 58.709 24.2216 56.0928 24.2216 52.8654C24.2216 52.7124 24.2274 52.5608 24.2388 52.4108C24.2984 51.629 24.0126 50.8162 23.3396 50.424L17.5259 47.0362C16.8536 46.6444 16.0142 46.8004 15.3742 47.2438C14.4432 47.8888 13.3159 48.2662 12.1013 48.2662C8.90344 48.2662 6.31104 45.6496 6.31104 42.422C6.31104 40.0972 7.65584 38.0896 9.6031 37.1482C10.3045 36.809 10.8604 36.1526 10.8604 35.3676V28.6064C10.8604 27.8214 10.3045 27.165 9.60312 26.8258C7.65586 25.8844 6.31104 23.8766 6.31104 21.552C6.31104 18.3242 8.90348 15.7075 12.1014 15.7075C13.3186 15.7075 14.448 16.0865 15.3801 16.734C16.0204 17.1788 16.8609 17.3357 17.534 16.9434L23.3396 13.5602C24.0126 13.1681 24.2984 12.3553 24.2388 11.5734C24.2274 11.4233 24.2216 11.2716 24.2216 11.1185C24.2216 7.89116 26.8136 5.2749 30.0112 5.2749C33.2086 5.2749 35.8008 7.89116 35.8008 11.1185Z" fill="#FC264C"/>
<g opacity="0.4">
<path opacity="0.4" d="M8.51112 31.9876C8.51112 34.3598 6.60584 36.2828 4.25556 36.2828C1.90528 36.2828 0 34.3598 0 31.9876C0 29.6154 1.90528 27.6924 4.25556 27.6924C6.60584 27.6924 8.51112 29.6154 8.51112 31.9876Z" fill="#FC264C"/>
<path opacity="0.4" d="M31.9606 1.96798C31.9606 3.05488 31.0876 3.93596 30.0108 3.93596C28.934 3.93596 28.061 3.05488 28.061 1.96798C28.061 0.881096 28.934 0 30.0108 0C31.0876 0 31.9606 0.881096 31.9606 1.96798Z" fill="#FC264C"/>
<path opacity="0.4" d="M31.961 62.032C31.961 63.119 31.088 64 30.0112 64C28.9344 64 28.0614 63.119 28.0614 62.032C28.0614 60.9452 28.9344 60.064 30.0112 60.064C31.088 60.064 31.961 60.9452 31.961 62.032Z" fill="#FC264C"/>
<path opacity="0.4" d="M20.8168 7.29776C21.992 9.35214 21.2946 11.9791 19.2592 13.1652C17.2238 14.3513 14.6211 13.6474 13.446 11.593C12.2708 9.53862 12.9682 6.91168 15.0036 5.72558C17.039 4.53948 19.6417 5.24338 20.8168 7.29776Z" fill="#FC264C"/>
<path opacity="0.4" d="M39.205 7.29776C38.0298 9.35214 38.7272 11.9791 40.7626 13.1652C42.798 14.3513 45.4006 13.6474 46.5758 11.593C47.751 9.53862 47.0536 6.91168 45.0182 5.72558C42.9828 4.53948 40.38 5.24338 39.205 7.29776Z" fill="#FC264C"/>
<path opacity="0.4" d="M39.2206 56.678C40.3958 58.7324 42.9984 59.4362 45.0338 58.2502C47.0692 57.064 47.7666 54.4372 46.5914 52.3828C45.4162 50.3284 42.8136 49.6244 40.7782 50.8106C38.7428 51.9966 38.0454 54.6236 39.2206 56.678Z" fill="#FC264C"/>
<path opacity="0.4" d="M20.8016 56.678C19.6264 58.7324 17.0238 59.4362 14.9884 58.2502C12.953 57.064 12.2556 54.4372 13.4307 52.3828C14.6059 50.3284 17.2085 49.6244 19.2439 50.8106C21.2794 51.9966 21.9768 54.6236 20.8016 56.678Z" fill="#FC264C"/>
<path opacity="0.4" d="M6.20557 16.9807C6.20557 18.0676 5.33263 18.9487 4.25577 18.9487C3.17893 18.9487 2.30597 18.0676 2.30597 16.9807C2.30597 15.8938 3.17893 15.0127 4.25577 15.0127C5.33263 15.0127 6.20557 15.8938 6.20557 16.9807Z" fill="#FC264C"/>
<path opacity="0.4" d="M6.20557 46.9988C6.20557 48.0858 5.33263 48.9668 4.25577 48.9668C3.17893 48.9668 2.30597 48.0858 2.30597 46.9988C2.30597 45.912 3.17893 45.0308 4.25577 45.0308C5.33263 45.0308 6.20557 45.912 6.20557 46.9988Z" fill="#FC264C"/>
</g>
<path d="M65.524 35.0104C65.524 32.5822 66.005 30.4538 66.9674 28.6256C67.958 26.7688 69.3166 25.3404 71.043 24.3406C72.7696 23.3408 74.7508 22.8408 76.9866 22.8408C79.817 22.8408 82.152 23.5264 83.9916 24.8976C85.8596 26.2402 87.1192 28.1686 87.7702 30.6824H82.5482C82.1236 29.5112 81.4444 28.597 80.5104 27.94C79.5764 27.283 78.4018 26.9544 76.9866 26.9544C75.0054 26.9544 73.4204 27.6686 72.2318 29.097C71.0714 30.4968 70.4912 32.4678 70.4912 35.0104C70.4912 37.5528 71.0714 39.5382 72.2318 40.9666C73.4204 42.3948 75.0054 43.109 76.9866 43.109C79.7886 43.109 81.6426 41.8664 82.5482 39.381H87.7702C87.0908 41.7806 85.8172 43.6946 83.9492 45.123C82.0812 46.5228 79.7604 47.2226 76.9866 47.2226C74.7508 47.2226 72.7696 46.7228 71.043 45.723C69.3166 44.6946 67.958 43.2662 66.9674 41.4378C66.005 39.581 65.524 37.4386 65.524 35.0104Z" fill=""/>
<path d="M109.957 17.0562V21.0412H97.4332V29.8256H107.198V33.8107H97.4332V46.8372H92.5934V17.0562H109.957Z" fill=""/>
<path d="M135.627 23.2266V46.8372H130.788V44.052C130.023 45.0232 129.019 45.7946 127.773 46.3658C126.556 46.9086 125.254 47.18 123.867 47.18C122.028 47.18 120.372 46.7944 118.9 46.023C117.457 45.2518 116.311 44.109 115.461 42.595C114.641 41.081 114.23 39.2528 114.23 37.1102V23.2266H119.028V36.3818C119.028 38.4956 119.551 40.124 120.598 41.2666C121.646 42.3808 123.075 42.9378 124.886 42.9378C126.698 42.9378 128.127 42.3808 129.174 41.2666C130.25 40.124 130.788 38.4956 130.788 36.3818V23.2266H135.627Z" fill=""/>
<path d="M153.816 22.8408C155.655 22.8408 157.297 23.2264 158.74 23.9978C160.212 24.769 161.358 25.9118 162.179 27.4258C163 28.9398 163.41 30.7682 163.41 32.9106V46.837H158.613V33.6392C158.613 31.5252 158.089 29.9112 157.042 28.797C155.995 27.6544 154.566 27.083 152.754 27.083C150.943 27.083 149.499 27.6544 148.424 28.797C147.377 29.9112 146.853 31.5252 146.853 33.6392V46.837H142.013V23.2264H146.853V25.926C147.645 24.9548 148.65 24.1978 149.867 23.655C151.113 23.1122 152.429 22.8408 153.816 22.8408Z" fill=""/>
<path d="M167.97 34.9248C167.97 32.5538 168.452 30.454 169.414 28.6258C170.405 26.7976 171.735 25.3834 173.405 24.3836C175.103 23.3552 176.985 22.841 179.051 22.841C180.58 22.841 182.08 23.1838 183.551 23.8694C185.051 24.5264 186.24 25.412 187.118 26.5262V15.1279H192V46.8372H187.118V43.2806C186.325 44.4234 185.221 45.366 183.806 46.1088C182.419 46.8516 180.82 47.2228 179.009 47.2228C176.971 47.2228 175.103 46.7086 173.405 45.6802C171.735 44.6232 170.405 43.1664 169.414 41.3096C168.452 39.4242 167.97 37.2958 167.97 34.9248ZM187.118 35.0106C187.118 33.3822 186.778 31.9682 186.099 30.7684C185.448 29.5686 184.584 28.6544 183.509 28.026C182.433 27.3974 181.273 27.0832 180.028 27.0832C178.782 27.0832 177.622 27.3974 176.546 28.026C175.471 28.6258 174.593 29.5256 173.914 30.7254C173.263 31.8968 172.938 33.2966 172.938 34.9248C172.938 36.5532 173.263 37.9814 173.914 39.2098C174.593 40.4382 175.471 41.381 176.546 42.038C177.65 42.6664 178.811 42.9806 180.028 42.9806C181.273 42.9806 182.433 42.6664 183.509 42.038C184.584 41.4096 185.448 40.4954 186.099 39.2956C186.778 38.0672 187.118 36.6388 187.118 35.0106Z" fill=""/>
</svg>
