<svg width="250" height="58" viewBox="0 0 250 58" fill="none" xmlns="http://www.w3.org/2000/svg">
<path d="M89.3878 36.1097C87.4697 38.1717 85.5035 39.1788 83.3457 39.1788C79.2215 39.1788 76.0087 35.774 76.0087 31.4102C76.0087 26.9984 79.1257 23.5936 83.1539 23.5936C86.1269 23.5936 88.0452 25.1761 89.3399 26.5668L89.5797 26.8545L92.0734 24.217L91.8335 23.9772C90.1551 22.2029 87.6616 20.1409 83.2018 20.1409C77.0637 20.1409 72.0764 25.224 72.0764 31.4581C72.0764 37.7881 76.9677 42.7752 83.2018 42.7752C87.7095 42.7752 90.299 40.5214 92.0253 38.6033L92.2651 38.3155L89.6756 35.9179L89.3878 36.1097Z" fill=""/>
<path d="M105.5 20.0937C102.671 20.0937 100.369 21.1967 98.6906 23.4026V11.6538L94.8542 13.524V42.1529H98.6906V29.8286C98.6906 26.184 101.136 23.6426 104.637 23.6426C108.042 23.6426 110.056 25.8964 110.056 29.5888V42.2008H113.892V28.8215C113.892 23.4986 110.631 20.0938 105.5 20.0938V20.0937Z" fill=""/>
<path d="M126.695 20.1914C123.387 20.1914 120.989 21.0545 118.927 22.0137L118.639 22.1574L119.838 25.3704L120.174 25.2265C122.427 24.2196 124.298 23.74 126.408 23.74C130.244 23.74 132.258 25.5622 132.258 29.0628V29.2547C130.675 28.8231 128.853 28.4874 126.216 28.4874C120.365 28.4874 116.913 31.1729 116.913 35.6806C116.913 40.2362 121.037 42.634 125.113 42.634C128.613 42.634 130.867 41.1474 132.306 39.6607V42.1545H136.094V29.0149C136.094 26.2335 135.327 24.1236 133.793 22.589C132.162 21.0545 129.717 20.1914 126.695 20.1914ZM132.258 32.4676V34.146C132.258 37.1671 129.429 39.421 125.64 39.421C123.291 39.421 120.749 38.2221 120.749 35.5846C120.749 33.139 122.907 31.6524 126.504 31.6524C128.997 31.6524 130.963 32.084 132.258 32.4676Z" fill=""/>
<path d="M151.248 20.0922C148.419 20.0922 146.117 21.1952 144.439 23.4012V20.5719H140.602V42.2465H144.439V29.8263C144.439 26.1818 146.884 23.6403 150.385 23.6403C153.79 23.6403 155.804 25.8941 155.804 29.5866V42.1985H159.64V28.8192C159.64 23.4963 156.331 20.0916 151.248 20.0916V20.0922Z" fill=""/>
<path d="M180.842 23.6417C178.78 21.2919 176.143 20.093 173.025 20.093C170.436 20.093 167.848 21.1001 165.977 22.8265C163.915 24.7446 162.812 27.3821 162.812 30.3553C162.812 33.2805 163.915 35.9659 165.977 37.8841C167.848 39.6104 170.436 40.6175 173.025 40.6175C176.143 40.6175 178.733 39.3707 180.891 36.8771V38.3157C180.891 42.8234 178.252 45.413 173.65 45.413C170.82 45.413 168.183 44.5497 165.784 42.8234L165.449 42.5836L163.675 45.6527L163.962 45.8445C166.792 47.8105 170.1 48.8176 173.697 48.8176C177.198 48.8176 180.027 47.8105 181.945 45.8924C183.767 44.0223 184.727 41.4806 184.727 38.2197V20.5251H180.891V23.6422H180.842V23.6417ZM180.987 30.3072C180.987 34.5752 177.247 37.1168 173.65 37.1168C169.764 37.1168 166.744 34.1436 166.744 30.3553C166.744 26.423 169.621 23.5936 173.65 23.5936C177.247 23.5457 180.987 26.0874 180.987 30.3072Z" fill=""/>
<path d="M198.672 20.092C192.725 20.092 188.266 24.9355 188.266 31.4093C188.266 37.8832 192.917 42.7264 199.104 42.7264C202.748 42.7264 205.481 41.4796 208.022 38.6503L208.262 38.3627L205.768 36.1567L205.528 36.3965C203.659 38.3627 201.645 39.2258 199.198 39.2258C195.507 39.2258 192.774 36.7322 192.246 32.9918H208.79L208.838 32.6561C208.886 32.1766 208.886 31.8409 208.886 31.5532C208.838 24.6957 204.762 20.092 198.672 20.092ZM204.906 29.7789H192.198C192.774 26.0383 195.363 23.4489 198.623 23.4489C202.603 23.4489 204.474 26.6138 204.906 29.7789Z" fill=""/>
<path d="M212.444 42.202H216.28V12.9978L212.444 14.9159V42.2019V42.202Z" fill=""/>
<path d="M221.31 42.2002H225.146V11.6531L221.31 13.5712V42.2001V42.2002Z" fill=""/>
<path d="M245.577 20.5256L239.055 37.4054L231.67 20.5256H227.451L237.137 41.77C235.842 44.743 234.739 45.3185 233.253 45.3185C232.006 45.3185 231.144 45.1267 230.137 44.5993L229.801 44.4074L228.458 47.5723L228.745 47.7162C230.327 48.4836 231.67 48.8191 233.349 48.8191C236.754 48.8191 238.864 47.0449 240.637 42.681L249.653 20.5256H245.577Z" fill=""/>
<path d="M61.4516 0.0959947C61.2119 0.0959947 55.889 0.33577 49.2712 1.91826C40.3038 4.02819 33.5902 7.52898 29.466 12.2764C28.5548 13.3314 27.6916 14.3384 26.9243 15.2975C25.2939 15.7291 20.7862 16.9759 18.7242 17.3596C17.5253 17.5993 16.5183 18.2708 15.799 19.2778C14.3125 21.4357 11.7229 25.8475 11.6271 26.0393L8.65387 31.1225L14.0728 28.7727C16.4226 27.7177 19.7314 26.9985 20.6905 27.5738C20.7384 27.6219 20.7864 27.6219 20.8343 27.9095C20.8343 29.4441 21.2179 30.9307 21.9373 32.4172C20.4508 33.5681 19.6356 35.3904 19.7314 37.2606V43.8784H26.349C28.2193 43.9742 29.9935 43.1111 31.1924 41.6724C32.6791 42.3917 34.1656 42.7274 35.7001 42.7753C35.94 42.8232 35.9879 42.8713 35.9879 42.9192C36.5634 43.8784 35.844 47.1872 34.789 49.5368L32.4392 54.9078L37.5224 51.9346C37.7142 51.8388 42.126 49.2492 44.284 47.7626C45.2911 47.0912 45.9624 46.0362 46.2021 44.8373C46.6337 42.7753 47.8326 38.2677 48.2641 36.6372C49.2233 35.8699 50.2303 35.0068 51.2853 34.0956C62.4107 24.265 63.4178 2.97306 63.4657 2.06201L63.5615 0L61.4516 0.0959083V0.0959947ZM21.6016 23.8339C20.3548 23.4502 18.9162 23.4982 17.5255 23.7381C18.053 22.8748 18.5804 22.0595 19.012 21.4361C19.108 21.2443 19.2998 21.1485 19.5396 21.1006C20.4987 20.9087 21.9852 20.5251 23.4718 20.1894C22.6086 21.4842 22.0331 22.6829 21.6016 23.8339ZM28.1234 39.2273C27.7397 39.7547 27.0684 40.0425 26.445 39.9944H25.8216L29.8017 33.7605L23.5678 37.7887V37.1172C23.5198 36.4459 23.8075 35.8225 24.3351 35.4388L31.9597 29.3965C32.3434 29.061 32.8709 28.8212 33.3504 28.7252L35.3645 28.2457L34.8849 30.2598C34.7411 30.7872 34.5493 31.2669 34.2136 31.6504L28.1234 39.2273ZM42.4137 44.0705C42.3658 44.2623 42.2699 44.4542 42.0781 44.5981C41.4547 45.0297 40.6395 45.5572 39.7762 46.0846C40.0161 44.6941 40.064 43.2553 39.6804 42.0085C40.8313 41.5769 42.0302 41.0015 43.3249 40.1862C42.9892 41.6249 42.6055 43.0635 42.4137 44.0705ZM48.7436 31.2188C42.126 37.0693 38.4815 38.7957 35.844 38.8915H35.7482C34.9329 38.8915 34.2615 38.7476 33.5902 38.5079L37.1387 34.0002C37.8102 33.1371 38.2897 32.1779 38.5775 31.123L40.4956 23.0666L32.4392 24.9849C31.3842 25.2246 30.3772 25.7041 29.562 26.3756L25.0543 29.9241C24.8146 29.2528 24.6706 28.5813 24.6706 27.7661V27.6703C24.7186 25.0807 26.4929 21.3882 32.3434 14.7705C39.3927 6.76217 53.9707 4.60416 59.437 4.07676C58.9094 9.59148 56.7516 24.1688 48.7431 31.2193L48.7436 31.2188Z" fill="#10D078"/>
<path d="M18.9418 53.3528C16.4961 53.8323 14.0025 53.9762 11.509 54.0241C10.0703 54.0241 8.63173 53.9762 7.1452 53.8323C7.72064 52.8732 8.24814 51.9142 8.72769 50.9072C9.63881 48.845 10.3102 46.783 10.8376 44.673C11.3172 42.6589 11.8926 40.6928 12.612 38.7267C13.2833 36.7606 14.0506 34.7944 14.9137 32.8284C14.1465 33.5957 13.4751 34.4109 12.8517 35.274C12.2283 36.1372 11.6049 37.0484 11.0294 37.9594C9.92649 39.7817 8.96743 41.7958 8.15221 43.7618C7.38496 45.6801 6.56974 47.5982 5.61072 49.3246C4.65162 51.0509 3.54871 52.6334 2.20592 54.168L0 56.7575L3.4048 57.2371C6.0902 57.6208 8.82369 57.8126 11.557 57.7166C12.9477 57.6687 14.2903 57.5727 15.681 57.3329C17.0238 57.1411 18.4144 56.8055 19.7092 56.4219C22.3467 55.6546 24.8882 54.4078 27.142 52.8253C28.2451 52.01 29.3001 51.099 30.1632 50.0439C31.0263 48.9889 31.8415 47.886 32.3691 46.6392C30.5468 48.5573 28.3409 49.948 26.0871 51.0509C23.7853 52.1539 21.3876 52.8732 18.9419 53.3528H18.9418Z" fill="#10D078"/>
<path d="M47.3539 22.923C49.0804 22.923 50.8067 22.2517 52.1494 20.9568C54.7869 18.3194 54.7869 14.0514 52.1494 11.4139C50.8546 10.1192 49.1762 9.44775 47.3539 9.44775C45.5317 9.44775 43.8533 10.1671 42.5584 11.4139C39.9211 14.0514 39.9211 18.3194 42.5584 20.9568C43.8533 22.2517 45.5796 22.923 47.3539 22.923ZM45.244 14.0995C45.8193 13.5241 46.5387 13.2363 47.306 13.2363C48.0733 13.2363 48.8405 13.5241 49.368 14.0995C50.519 15.2504 50.519 17.0726 49.368 18.2235C48.2171 19.3743 46.3948 19.3743 45.244 18.2235C44.141 17.1205 44.141 15.2503 45.244 14.0995Z" fill="#10D078"/>
</svg>
