<svg width="216" height="32" viewBox="0 0 216 32" fill="none" xmlns="http://www.w3.org/2000/svg">
<path d="M19.4459 0.460449H0V31.5462H19.4459V0.460449Z" fill=""/>
<path d="M31.112 0.457031H23.3336V19.8856H31.112V0.457031Z" fill=""/>
<path d="M31.112 23.772H23.3336V31.5434H31.112V23.772Z" fill=""/>
<path d="M63.14 25.5078L63.0486 25.5534C60.898 27.2906 58.107 28.2506 55.1786 28.2506C48.041 28.2962 43.2366 23.3592 43.2366 15.9992C43.2366 8.77642 47.9494 3.70202 54.6296 3.70202C57.6952 3.70202 60.1202 4.43344 62.225 5.98762L62.3164 6.03334L64.1466 3.06194L64.0552 3.01622C61.7674 1.0505 58.473 -0.000976562 54.5838 -0.000976562C49.9168 -0.000976562 45.982 1.59902 43.191 4.66182C40.5372 7.54182 39.073 11.5646 39.073 15.999C39.073 25.5532 45.4328 31.999 54.8584 31.999C58.7476 31.999 62.6368 30.6276 64.6958 28.5246L64.7414 28.479L63.14 25.5076V25.5078Z" fill=""/>
<path d="M83.406 0C78.9678 0 74.9412 1.64572 72.013 4.6172C69.1304 7.5428 67.529 11.6114 67.529 16C67.529 25.28 74.2092 32 83.406 32C87.7984 32 91.8248 30.4 94.7074 27.4742C97.6358 24.5486 99.2372 20.48 99.2372 16C99.283 6.72 92.6026 0 83.406 0ZM95.1192 16C95.1192 23.1314 90.1776 28.297 83.406 28.297C80.2032 28.297 77.2748 27.0628 75.0786 24.777C72.8824 22.4914 71.6926 19.3828 71.6926 16C71.6926 12.5714 72.8824 9.4172 75.0328 7.1772C77.1832 4.9372 80.1574 3.703 83.406 3.703C90.0862 3.703 95.1192 9.0058 95.1192 16.0002V16Z" fill=""/>
<path d="M108.892 0.457031H104.957V31.543H108.892V0.457031Z" fill=""/>
<path d="M139.046 0.457031V24.685L119.875 0.503031L119.829 0.457317H116.717V31.5433H120.424V7.40732L139.595 31.5433H142.752V0.457317H139.046V0.457031Z" fill=""/>
<path d="M165.444 15.8168C164.071 14.354 162.104 13.4396 159.953 13.1654L167 3.29123V0.457031H150.025V4.15983H162.058L154.417 15.7254H155.103C160.457 15.7254 163.888 18.2854 163.888 22.2626C163.888 25.6454 161.235 28.2968 157.849 28.2968C155.058 28.2968 152.541 26.834 150.757 24.1826L150.711 24.091L148.56 26.7424L148.606 26.7882C150.482 30.6282 154.692 31.9996 157.94 31.9996C163.66 31.9996 167.778 27.931 167.778 22.2626C167.823 19.7026 167 17.4626 165.444 15.8168Z" fill=""/>
<path d="M183.06 12.3427C179.903 12.3427 177.432 13.6684 175.968 16.0455C177.524 8.22832 183.243 4.11412 188.093 2.87992L188.185 2.8342L186.675 0H186.629C182.969 0.86856 179.262 3.2456 176.517 6.5828C174.229 9.3256 171.53 13.9428 171.53 20.5256C171.53 23.6342 172.536 26.5142 174.321 28.5714C176.288 30.8114 179.079 32 182.328 32C187.086 32 191.982 28.2514 191.982 21.9428C191.982 16.3656 188.23 12.3428 183.06 12.3428V12.3427ZM188.047 22.1713C188.047 25.5999 185.531 28.2513 182.282 28.2513C179.125 28.2513 175.419 26.2399 175.419 20.4799C176.197 18.1485 178.485 15.7713 181.825 15.7713C185.622 15.817 188.047 18.3313 188.047 22.1713Z" fill=""/>
<path d="M205.8 0.0913086C199.257 0.0913086 195.688 5.75991 195.688 15.9999C195.688 20.8457 196.512 24.7313 198.159 27.4285C199.898 30.3999 202.506 31.8627 205.938 31.8627C212.388 31.8627 215.958 26.1943 215.958 15.9543C215.958 5.76011 212.344 0.0915086 205.8 0.0915086V0.0913086ZM212.022 15.9999C212.022 24.4571 210.102 28.4341 205.938 28.4341C201.774 28.4341 199.669 24.2743 199.669 15.9999C199.669 7.63431 201.682 3.56571 205.846 3.56571C210.056 3.56571 212.022 7.54291 212.022 15.9999Z" fill=""/>
</svg>
