<svg width="60" height="60" viewBox="0 0 60 60" fill="none" xmlns="http://www.w3.org/2000/svg">
<path d="M0 0V60H60V0H0ZM8.87762 19.0235C8.87762 13.2488 13.3207 8.7212 19.3194 8.7212C23.3693 8.7212 25.9734 10.4122 27.7278 12.8556L23.5933 16.0516C22.4646 14.6396 21.1625 13.7307 19.2644 13.7307C16.487 13.7096 14.5382 16.0643 14.5382 18.9474V19.0235C14.5382 21.9827 16.4912 24.3204 19.2644 24.3204C21.3316 24.3204 22.5491 23.3566 23.7371 21.9108L27.8673 24.87C26.003 27.4445 23.4834 29.3426 19.0953 29.3426C17.7423 29.364 16.3988 29.1122 15.1453 28.6023C13.8918 28.0924 12.754 27.3348 11.8001 26.375C10.8462 25.4151 10.0957 24.2727 9.59353 23.0161C9.09138 21.7594 8.84788 20.4144 8.87762 19.0615V19.0235ZM21.1034 52.0989H16.0093L7.96872 32.1285H14.1112L18.6007 44.6586L23.1156 32.1285H29.1439L21.1034 52.0989ZM40.6087 52.3526C39.2568 52.3739 37.9144 52.1225 36.6617 51.6133C35.4091 51.1042 34.2719 50.3478 33.3182 49.3893C32.3644 48.4308 31.6137 47.2899 31.1107 46.0348C30.6078 44.7796 30.363 43.436 30.391 42.0841V42.0292C30.391 36.2545 34.8341 31.7058 40.8328 31.7058C44.8827 31.7058 47.4868 33.3967 49.2412 35.8402L45.1067 39.0404C43.9653 37.6242 42.6971 36.7322 40.7778 36.7322C38.0047 36.7322 36.0516 39.0826 36.0516 41.97V42.0292C36.0516 44.9884 38.0047 47.3219 40.7778 47.3219C42.8451 47.3219 44.0626 46.3581 45.2505 44.9165L49.3807 47.8757C47.5164 50.4333 44.9968 52.3314 40.6087 52.3314V52.3526ZM42.7605 29.0721H37.6622L29.6301 9.11858H35.7683L40.2663 21.636L44.7686 9.09744H50.7969L42.7605 29.0721Z" fill=""/>
</svg>
