<svg width="250" height="70" viewBox="0 0 250 70" fill="none" xmlns="http://www.w3.org/2000/svg">
<path d="M12.7349 47.5991C20.7508 47.5991 24.5001 43.3766 24.5001 38.1305C24.5001 31.9247 20.2982 30.7091 13.5753 28.086C10.537 26.9345 8.59766 25.8468 8.59766 24.3114C8.59766 22.3921 10.6016 21.6243 12.0238 21.6243C14.4803 21.6243 17.3893 22.584 19.9104 24.9512L23.5304 19.3212C20.0397 16.5062 16.4196 15.4185 12.4117 15.4185C5.94726 15.4185 1.29288 19.1292 1.29288 24.2474C1.29288 30.3892 5.75332 32.6924 10.9249 34.4838C15.0621 35.8913 17.1307 36.659 17.1307 38.2584C17.1307 40.1138 15.5146 41.3294 12.7349 41.3294C8.85624 41.3294 6.14119 40.1138 3.62007 37.6826L0 43.0567C3.29685 45.9357 7.628 47.5991 12.7349 47.5991Z" fill=""/>
<path d="M43.2179 47.5991C50.0702 47.5991 54.1428 45.168 56.7932 41.7772L51.8156 37.4267C50.1995 39.538 47.3552 41.0734 43.8644 41.0734C38.305 41.0734 34.491 37.2348 34.491 31.4768C34.491 25.7829 38.2403 21.8802 43.8644 21.8802C47.2905 21.8802 50.0056 23.3517 51.8156 25.463L56.7286 21.2405C53.561 17.4018 48.3895 15.4185 43.4765 15.4185C33.9092 15.4185 27.1216 21.9442 27.1216 31.5408C27.1216 41.0734 33.9092 47.5991 43.2179 47.5991Z" fill=""/>
<path d="M74.0247 47.5991C78.4205 47.5991 81.782 45.9357 84.0445 42.9288L84.1738 42.9928V47.0873H91.0908V15.8664H83.8506V19.641L83.7213 19.705C81.4588 16.89 77.968 15.4185 73.9601 15.4185C65.2978 15.4185 58.7687 22.2001 58.7687 31.6048C58.7687 41.2654 65.2978 47.5991 74.0247 47.5991ZM75.1883 41.0734C69.8229 41.0734 66.1381 37.1708 66.1381 31.6688C66.1381 25.6549 70.1461 21.8802 75.1883 21.8802C80.3598 21.8802 84.1738 26.1028 84.1738 31.6688C84.1738 37.2988 80.1013 41.0734 75.1883 41.0734Z" fill=""/>
<path d="M97.9858 47.0873H105.226V0H97.9858V47.0873Z" fill=""/>
<path d="M125.769 47.5991C130.165 47.5991 133.527 45.9357 135.789 42.9288L135.919 42.9928V47.0873H142.835V15.8664H135.595V19.641L135.466 19.705C133.204 16.89 129.713 15.4185 125.705 15.4185C117.042 15.4185 110.513 22.2001 110.513 31.6048C110.513 41.2654 117.042 47.5991 125.769 47.5991ZM126.933 41.0734C121.568 41.0734 117.883 37.1708 117.883 31.6688C117.883 25.6549 121.891 21.8802 126.933 21.8802C132.105 21.8802 135.919 26.1028 135.919 31.6688C135.919 37.2988 131.846 41.0734 126.933 41.0734Z" fill=""/>
<path d="M166.538 47.5991C175.33 47.5991 181.859 41.2654 181.859 31.6048C181.859 22.2001 175.33 15.4185 166.603 15.4185C162.465 15.4185 159.039 16.826 156.583 19.5771H156.518V0H149.278V47.0873H156.195V42.9288H156.324C158.651 45.9357 162.013 47.5991 166.538 47.5991ZM165.439 41.0734C160.268 41.0734 156.195 37.2988 156.195 31.6688C156.195 26.1028 159.944 21.8802 165.374 21.8802C170.417 21.8802 174.489 25.6549 174.489 31.6688C174.489 37.1708 170.74 41.0734 165.439 41.0734Z" fill=""/>
<path d="M187.187 47.0873H194.427V0H187.187V47.0873Z" fill=""/>
<path d="M230.485 31.093C230.485 22.0082 224.473 15.4185 215.617 15.4185C206.373 15.4185 199.779 21.8802 199.779 31.4768C199.779 41.2654 206.567 47.5991 216.134 47.5991C222.922 47.5991 226.865 45.104 229.516 41.7132L224.473 37.4267C222.857 39.41 220.272 41.0734 216.522 41.0734C211.609 41.0734 208.183 38.3864 207.278 33.844H230.291C230.356 33.3322 230.485 32.2446 230.485 31.093ZM215.553 21.8802C219.69 21.8802 222.275 24.4393 223.181 28.214H207.407C208.442 24.1195 211.545 21.8802 215.553 21.8802Z" fill=""/>
<path d="M238.933 29.4281C238.933 26.3891 241.4 23.9199 244.498 23.9199C247.534 23.9199 250 26.3891 250 29.4281C250 32.4671 247.534 34.873 244.498 34.873C241.4 34.873 238.933 32.4671 238.933 29.4281Z" fill="#F43333"/>
<path d="M158.89 69.2779C161.339 69.2779 162.485 67.961 162.485 66.3248C162.485 64.3893 161.201 64.0102 159.147 63.1921C158.219 62.833 157.627 62.4938 157.627 62.0149C157.627 61.4163 158.239 61.1768 158.673 61.1768C159.424 61.1768 160.312 61.4761 161.082 62.2144L162.188 60.4585C161.122 59.5806 160.016 59.2414 158.792 59.2414C156.817 59.2414 155.395 60.3987 155.395 61.9949C155.395 63.9104 156.758 64.6288 158.337 65.1875C159.601 65.6264 160.233 65.8659 160.233 66.3647C160.233 66.9434 159.74 67.3225 158.89 67.3225C157.706 67.3225 156.876 66.9434 156.106 66.1851L155 67.8612C156.007 68.7591 157.33 69.2779 158.89 69.2779Z" fill="" fill-opacity="0.35"/>
<path d="M168.341 69.2779C171.303 69.2779 173.397 67.2227 173.397 64.2696C173.397 61.2766 171.303 59.2414 168.341 59.2414C165.3 59.2414 163.285 61.3963 163.285 64.2696C163.285 67.1229 165.3 69.2779 168.341 69.2779ZM168.341 67.2427C166.682 67.2427 165.537 65.9257 165.537 64.2696C165.537 62.5736 166.662 61.2567 168.341 61.2567C169.921 61.2567 171.145 62.4738 171.145 64.2696C171.145 66.0255 169.901 67.2427 168.341 67.2427Z" fill="" fill-opacity="0.35"/>
<path d="M175.015 69.1183H177.227V54.4326H175.015V69.1183Z" fill="" fill-opacity="0.35"/>
<path d="M182.851 69.2779C183.957 69.2779 185.023 68.819 185.793 67.8812L185.833 67.9011V69.1183H188.045V59.381H185.833V64.0501C185.833 66.1452 184.648 67.2427 183.364 67.2427C182.041 67.2427 181.449 66.6441 181.449 64.7086V59.381H179.237V65.3072C179.237 68.2004 180.718 69.2779 182.851 69.2779Z" fill="" fill-opacity="0.35"/>
<path d="M192.892 69.2779C194.156 69.2779 194.768 69.0185 195.341 68.6992L194.768 66.7638C194.255 67.0431 193.721 67.1828 193.346 67.1828C192.714 67.1828 192.418 66.8236 192.418 65.826V61.2766H195.242V59.381H192.418V55.9092L190.206 56.1486V59.381H189.021V61.2766H190.206V66.0455C190.206 68.2204 191.233 69.2779 192.892 69.2779Z" fill="" fill-opacity="0.35"/>
<path d="M197.663 57.9444C198.492 57.9444 199.163 57.266 199.163 56.4479C199.163 55.6498 198.492 54.9714 197.663 54.9714C196.833 54.9714 196.182 55.6498 196.182 56.4479C196.182 57.266 196.833 57.9444 197.663 57.9444ZM196.557 69.1183H198.769V59.381H196.557V69.1183Z" fill="" fill-opacity="0.35"/>
<path d="M205.459 69.2779C208.421 69.2779 210.515 67.2227 210.515 64.2696C210.515 61.2766 208.421 59.2414 205.459 59.2414C202.418 59.2414 200.404 61.3963 200.404 64.2696C200.404 67.1229 202.418 69.2779 205.459 69.2779ZM205.459 67.2427C203.8 67.2427 202.655 65.9257 202.655 64.2696C202.655 62.5736 203.781 61.2567 205.459 61.2567C207.039 61.2567 208.263 62.4738 208.263 64.2696C208.263 66.0255 207.019 67.2427 205.459 67.2427Z" fill="" fill-opacity="0.35"/>
<path d="M211.995 69.1183H214.207V64.2297C214.207 62.3142 215.194 61.2567 216.695 61.2567C218.018 61.2567 218.788 61.9151 218.788 63.9703V69.1183H221V63.3917C221 60.4585 219.578 59.2414 217.465 59.2414C216.201 59.2414 215.036 59.7602 214.246 60.7179H214.207V59.381H211.995V69.1183Z" fill="" fill-opacity="0.35"/>
<path d="M225.906 69.2779C228.355 69.2779 229.5 67.961 229.5 66.3248C229.5 64.3893 228.216 64.0102 226.163 63.1921C225.234 62.833 224.642 62.4938 224.642 62.0149C224.642 61.4163 225.254 61.1768 225.689 61.1768C226.439 61.1768 227.328 61.4761 228.098 62.2144L229.204 60.4585C228.137 59.5806 227.031 59.2414 225.807 59.2414C223.832 59.2414 222.41 60.3987 222.41 61.9949C222.41 63.9104 223.773 64.6288 225.353 65.1875C226.617 65.6264 227.249 65.8659 227.249 66.3647C227.249 66.9434 226.755 67.3225 225.906 67.3225C224.721 67.3225 223.891 66.9434 223.121 66.1851L222.015 67.8612C223.023 68.7591 224.346 69.2779 225.906 69.2779Z" fill="" fill-opacity="0.35"/>
</svg>
