<svg width="160" height="19" viewBox="0 0 160 19" fill="none" xmlns="http://www.w3.org/2000/svg">
<path d="M23.2956 3.60801C23.2969 3.21274 23.2222 2.8211 23.0758 2.45571C22.9293 2.09031 22.714 1.75841 22.4422 1.47916C22.1704 1.19991 21.8476 0.978843 21.4924 0.828724C21.1371 0.678605 20.7565 0.602408 20.3725 0.604536H2.92302C2.14869 0.604534 1.406 0.920798 0.857974 1.48391C0.309952 2.04702 0.00138027 2.81094 0 3.60801V15.5844C0 16.3824 0.307966 17.1477 0.856138 17.712C1.40431 18.2763 2.14778 18.5933 2.92302 18.5933H20.3725C20.757 18.5954 21.138 18.519 21.4936 18.3686C21.8491 18.2181 22.1722 17.9966 22.444 17.7168C22.7159 17.4369 22.9311 17.1044 23.0773 16.7384C23.2234 16.3724 23.2976 15.9802 23.2956 15.5844V3.60801ZM4.81959 18.0033C4.57009 18.0033 4.32304 17.9526 4.0926 17.8542C3.86216 17.7557 3.65285 17.6115 3.47667 17.4296C3.30049 17.2478 3.16089 17.0319 3.06589 16.7944C2.97088 16.5569 2.92233 16.3025 2.92302 16.0457V3.14677C2.92302 2.62899 3.12283 2.13242 3.47851 1.7663C3.83419 1.40018 4.31659 1.19449 4.81959 1.19449H18.476C18.979 1.19449 19.4614 1.40018 19.817 1.7663C20.1727 2.13242 20.3725 2.62899 20.3725 3.14677V16.051C20.3732 16.3079 20.3247 16.5623 20.2297 16.7998C20.1347 17.0373 19.9951 17.2531 19.8189 17.435C19.6427 17.6168 19.4334 17.7611 19.203 17.8596C18.9725 17.958 18.7255 18.0087 18.476 18.0087L4.81959 18.0033ZM47.5915 12.6399V15.5951C47.5943 15.9888 47.5214 16.3792 47.3771 16.7437C47.2328 17.1083 47.0199 17.4399 46.7507 17.7195C46.4815 17.9992 46.1613 18.2212 45.8084 18.373C45.4555 18.5248 45.077 18.6033 44.6945 18.604H27.219C26.8376 18.6111 26.4587 18.54 26.1043 18.3946C25.75 18.2493 25.4273 18.0328 25.1552 17.7576C24.883 17.4825 24.6669 17.1543 24.5194 16.7922C24.3718 16.4301 24.2959 16.0414 24.2959 15.6488V3.66165C24.2918 2.85788 24.5969 2.0851 25.1446 1.51224C25.6924 0.939376 26.4382 0.61303 27.219 0.604536H47.5915V1.24813L29.1155 1.2964C28.8689 1.29069 28.6237 1.33569 28.3941 1.42875C28.1646 1.52181 27.9554 1.66106 27.7788 1.83837C27.6022 2.01567 27.4617 2.22745 27.3656 2.46132C27.2694 2.69519 27.2196 2.94646 27.219 3.20041V16.0725C27.2196 16.3264 27.2694 16.5777 27.3656 16.8116C27.4617 17.0454 27.6022 17.2572 27.7788 17.4345C27.9554 17.6118 28.1646 17.7511 28.3941 17.8441C28.6237 17.9372 28.8689 17.9822 29.1155 17.9765H42.798C43.2956 17.9751 43.7728 17.7725 44.1266 17.4123C44.4804 17.0521 44.6825 16.5632 44.6893 16.051V12.6346L47.5915 12.6399ZM71.8875 12.6399V15.5951C71.8902 15.9888 71.8173 16.3792 71.673 16.7437C71.5288 17.1083 71.3159 17.4399 71.0467 17.7195C70.7775 17.9992 70.4572 18.2212 70.1043 18.373C69.7515 18.5248 69.3729 18.6033 68.9905 18.604H51.5149C51.1335 18.6111 50.7546 18.54 50.4003 18.3946C50.0459 18.2493 49.7232 18.0328 49.4511 17.7576C49.179 17.4825 48.9628 17.1543 48.8153 16.7922C48.6678 16.4301 48.5918 16.0414 48.5919 15.6488V3.66165C48.5877 2.85788 48.8928 2.0851 49.4406 1.51224C49.9883 0.939376 50.7341 0.61303 51.5149 0.604536H71.8875V1.24813L53.4115 1.2964C53.1666 1.29071 52.923 1.33501 52.6949 1.42673C52.4667 1.51846 52.2584 1.65581 52.0821 1.83084C51.9058 2.00586 51.7649 2.21511 51.6675 2.44649C51.5702 2.67788 51.5183 2.92682 51.5149 3.17895V16.051C51.5156 16.305 51.5654 16.5562 51.6615 16.7901C51.7576 17.024 51.8981 17.2358 52.0747 17.4131C52.2513 17.5904 52.4605 17.7296 52.6901 17.8227C52.9196 17.9158 53.1649 17.9607 53.4115 17.955H67.0939C67.3434 17.955 67.5905 17.9044 67.8209 17.8059C68.0514 17.7075 68.2607 17.5632 68.4369 17.3813C68.613 17.1995 68.7526 16.9836 68.8476 16.7462C68.9426 16.5087 68.9912 16.2542 68.9905 15.9974V12.5809L71.8875 12.6399ZM72.8878 0.615256V1.25887H89.8163L72.8878 18.604H76.9936L88.1542 7.39992C89.2347 6.18876 89.8238 4.59784 89.8007 2.95368C89.8007 0.663519 93.2969 0.663519 93.2969 2.95368V18.604H96.1678V3.58657C96.1763 3.19608 96.1079 2.80785 95.9666 2.44533C95.8254 2.08281 95.6142 1.75352 95.3459 1.47733C95.0776 1.20114 94.7577 0.983781 94.4055 0.838381C94.0534 0.692981 93.6762 0.622551 93.2969 0.631346L72.8878 0.615256ZM119.953 0.615256C119.567 0.611094 119.183 0.686261 118.826 0.836368C118.468 0.986474 118.142 1.20851 117.869 1.48949L115.67 3.77427C115.152 4.32001 114.746 4.96825 114.477 5.67987C114.208 6.39149 114.083 7.15175 114.107 7.9148C114.107 8.34722 113.94 8.76195 113.643 9.06772C113.346 9.37349 112.943 9.54527 112.523 9.54527C112.103 9.54527 111.7 9.37349 111.403 9.06772C111.106 8.76195 110.939 8.34722 110.939 7.9148C110.963 7.1519 110.836 6.392 110.568 5.68055C110.299 4.96911 109.894 4.32074 109.376 3.77427L107.177 1.48949C106.904 1.20875 106.578 0.986883 106.221 0.836793C105.863 0.686704 105.479 0.611393 105.093 0.615256H100.102C99.7178 0.613842 99.3375 0.690529 98.9826 0.840902C98.6277 0.991274 98.3051 1.21236 98.0335 1.49147C97.7619 1.77058 97.5465 2.10221 97.3998 2.46728C97.2531 2.83235 97.1779 3.22367 97.1786 3.61875V18.604H100.102V3.15749C100.098 2.77208 100.207 2.39442 100.413 2.0726C100.619 1.75079 100.913 1.49937 101.259 1.3504C101.604 1.20142 101.985 1.16161 102.352 1.23605C102.719 1.31049 103.057 1.4958 103.322 1.76838L110.736 9.4541C111.211 9.93012 111.847 10.1965 112.51 10.1965C113.173 10.1965 113.809 9.93012 114.284 9.4541L121.725 1.76838C121.991 1.501 122.328 1.3203 122.694 1.24878C123.06 1.17727 123.438 1.21811 123.781 1.36621C124.124 1.51431 124.418 1.76313 124.625 2.08166C124.832 2.40018 124.943 2.77433 124.945 3.15749V18.604H127.862V3.60801C127.864 3.21319 127.789 2.82199 127.643 2.45695C127.497 2.09191 127.282 1.76026 127.011 1.48108C126.74 1.20189 126.417 0.9807 126.063 0.830263C125.708 0.679825 125.328 0.603118 124.945 0.604536L119.953 0.615256ZM131.791 18.604V17.9604H128.868V18.604H131.791ZM156.077 1.25887V0.615256H142.446C140.248 0.615256 139.351 2.41199 139.351 5.0615C139.316 5.47634 139.128 5.86155 138.826 6.13861C138.523 6.41566 138.13 6.56369 137.726 6.55251H135.871V0.604536H132.797V18.5933H135.871V7.18002H153.221V6.54177H139.351L143.686 2.10627C143.946 1.82008 144.263 1.5959 144.616 1.4495C144.969 1.3031 145.349 1.23804 145.729 1.25887H156.077ZM157.077 1.25887H160V0.615256H157.077V1.25887ZM160 18.604V1.81129H157.077V18.5933L160 18.604Z" fill="url(#paint0_linear_116_150)"/>
<path d="M23.2956 3.60801C23.2969 3.21274 23.2222 2.8211 23.0758 2.45571C22.9293 2.09031 22.714 1.75841 22.4422 1.47916C22.1704 1.19991 21.8476 0.978843 21.4924 0.828724C21.1371 0.678605 20.7565 0.602408 20.3725 0.604536H2.92302C2.14869 0.604534 1.406 0.920798 0.857974 1.48391C0.309952 2.04702 0.00138027 2.81094 0 3.60801V15.5844C0 16.3824 0.307966 17.1477 0.856138 17.712C1.40431 18.2763 2.14778 18.5933 2.92302 18.5933H20.3725C20.757 18.5954 21.138 18.519 21.4936 18.3686C21.8491 18.2181 22.1722 17.9966 22.444 17.7168C22.7159 17.4369 22.9311 17.1044 23.0773 16.7384C23.2234 16.3724 23.2976 15.9802 23.2956 15.5844V3.60801ZM4.81959 18.0033C4.57009 18.0033 4.32304 17.9526 4.0926 17.8542C3.86216 17.7557 3.65285 17.6115 3.47667 17.4296C3.30049 17.2478 3.16089 17.0319 3.06589 16.7944C2.97088 16.5569 2.92233 16.3025 2.92302 16.0457V3.14677C2.92302 2.62899 3.12283 2.13242 3.47851 1.7663C3.83419 1.40018 4.31659 1.19449 4.81959 1.19449H18.476C18.979 1.19449 19.4614 1.40018 19.817 1.7663C20.1727 2.13242 20.3725 2.62899 20.3725 3.14677V16.051C20.3732 16.3079 20.3247 16.5623 20.2297 16.7998C20.1347 17.0373 19.9951 17.2531 19.8189 17.435C19.6427 17.6168 19.4334 17.7611 19.203 17.8596C18.9725 17.958 18.7255 18.0087 18.476 18.0087L4.81959 18.0033ZM47.5915 12.6399V15.5951C47.5943 15.9888 47.5214 16.3792 47.3771 16.7437C47.2328 17.1083 47.0199 17.4399 46.7507 17.7195C46.4815 17.9992 46.1613 18.2212 45.8084 18.373C45.4555 18.5248 45.077 18.6033 44.6945 18.604H27.219C26.8376 18.6111 26.4587 18.54 26.1043 18.3946C25.75 18.2493 25.4273 18.0328 25.1552 17.7576C24.883 17.4825 24.6669 17.1543 24.5194 16.7922C24.3718 16.4301 24.2959 16.0414 24.2959 15.6488V3.66165C24.2918 2.85788 24.5969 2.0851 25.1446 1.51224C25.6924 0.939376 26.4382 0.61303 27.219 0.604536H47.5915V1.24813L29.1155 1.2964C28.8689 1.29069 28.6237 1.33569 28.3941 1.42875C28.1646 1.52181 27.9554 1.66106 27.7788 1.83837C27.6022 2.01567 27.4617 2.22745 27.3656 2.46132C27.2694 2.69519 27.2196 2.94646 27.219 3.20041V16.0725C27.2196 16.3264 27.2694 16.5777 27.3656 16.8116C27.4617 17.0454 27.6022 17.2572 27.7788 17.4345C27.9554 17.6118 28.1646 17.7511 28.3941 17.8441C28.6237 17.9372 28.8689 17.9822 29.1155 17.9765H42.798C43.2956 17.9751 43.7728 17.7725 44.1266 17.4123C44.4804 17.0521 44.6825 16.5632 44.6893 16.051V12.6346L47.5915 12.6399ZM71.8875 12.6399V15.5951C71.8902 15.9888 71.8173 16.3792 71.673 16.7437C71.5288 17.1083 71.3159 17.4399 71.0467 17.7195C70.7775 17.9992 70.4572 18.2212 70.1043 18.373C69.7515 18.5248 69.3729 18.6033 68.9905 18.604H51.5149C51.1335 18.6111 50.7546 18.54 50.4003 18.3946C50.0459 18.2493 49.7232 18.0328 49.4511 17.7576C49.179 17.4825 48.9628 17.1543 48.8153 16.7922C48.6678 16.4301 48.5918 16.0414 48.5919 15.6488V3.66165C48.5877 2.85788 48.8928 2.0851 49.4406 1.51224C49.9883 0.939376 50.7341 0.61303 51.5149 0.604536H71.8875V1.24813L53.4115 1.2964C53.1666 1.29071 52.923 1.33501 52.6949 1.42673C52.4667 1.51846 52.2584 1.65581 52.0821 1.83084C51.9058 2.00586 51.7649 2.21511 51.6675 2.44649C51.5702 2.67788 51.5183 2.92682 51.5149 3.17895V16.051C51.5156 16.305 51.5654 16.5562 51.6615 16.7901C51.7576 17.024 51.8981 17.2358 52.0747 17.4131C52.2513 17.5904 52.4605 17.7296 52.6901 17.8227C52.9196 17.9158 53.1649 17.9607 53.4115 17.955H67.0939C67.3434 17.955 67.5905 17.9044 67.8209 17.8059C68.0514 17.7075 68.2607 17.5632 68.4369 17.3813C68.613 17.1995 68.7526 16.9836 68.8476 16.7462C68.9426 16.5087 68.9912 16.2542 68.9905 15.9974V12.5809L71.8875 12.6399ZM72.8878 0.615256V1.25887H89.8163L72.8878 18.604H76.9936L88.1542 7.39992C89.2347 6.18876 89.8238 4.59784 89.8007 2.95368C89.8007 0.663519 93.2969 0.663519 93.2969 2.95368V18.604H96.1678V3.58657C96.1763 3.19608 96.1079 2.80785 95.9666 2.44533C95.8254 2.08281 95.6142 1.75352 95.3459 1.47733C95.0776 1.20114 94.7577 0.983781 94.4055 0.838381C94.0534 0.692981 93.6762 0.622551 93.2969 0.631346L72.8878 0.615256ZM119.953 0.615256C119.567 0.611094 119.183 0.686261 118.826 0.836368C118.468 0.986474 118.142 1.20851 117.869 1.48949L115.67 3.77427C115.152 4.32001 114.746 4.96825 114.477 5.67987C114.208 6.39149 114.083 7.15175 114.107 7.9148C114.107 8.34722 113.94 8.76195 113.643 9.06772C113.346 9.37349 112.943 9.54527 112.523 9.54527C112.103 9.54527 111.7 9.37349 111.403 9.06772C111.106 8.76195 110.939 8.34722 110.939 7.9148C110.963 7.1519 110.836 6.392 110.568 5.68055C110.299 4.96911 109.894 4.32074 109.376 3.77427L107.177 1.48949C106.904 1.20875 106.578 0.986883 106.221 0.836793C105.863 0.686704 105.479 0.611393 105.093 0.615256H100.102C99.7178 0.613842 99.3375 0.690529 98.9826 0.840902C98.6277 0.991274 98.3051 1.21236 98.0335 1.49147C97.7619 1.77058 97.5465 2.10221 97.3998 2.46728C97.2531 2.83235 97.1779 3.22367 97.1786 3.61875V18.604H100.102V3.15749C100.098 2.77208 100.207 2.39442 100.413 2.0726C100.619 1.75079 100.913 1.49937 101.259 1.3504C101.604 1.20142 101.985 1.16161 102.352 1.23605C102.719 1.31049 103.057 1.4958 103.322 1.76838L110.736 9.4541C111.211 9.93012 111.847 10.1965 112.51 10.1965C113.173 10.1965 113.809 9.93012 114.284 9.4541L121.725 1.76838C121.991 1.501 122.328 1.3203 122.694 1.24878C123.06 1.17727 123.438 1.21811 123.781 1.36621C124.124 1.51431 124.418 1.76313 124.625 2.08166C124.832 2.40018 124.943 2.77433 124.945 3.15749V18.604H127.862V3.60801C127.864 3.21319 127.789 2.82199 127.643 2.45695C127.497 2.09191 127.282 1.76026 127.011 1.48108C126.74 1.20189 126.417 0.9807 126.063 0.830263C125.708 0.679825 125.328 0.603118 124.945 0.604536L119.953 0.615256ZM131.791 18.604V17.9604H128.868V18.604H131.791ZM156.077 1.25887V0.615256H142.446C140.248 0.615256 139.351 2.41199 139.351 5.0615C139.316 5.47634 139.128 5.86155 138.826 6.13861C138.523 6.41566 138.13 6.56369 137.726 6.55251H135.871V0.604536H132.797V18.5933H135.871V7.18002H153.221V6.54177H139.351L143.686 2.10627C143.946 1.82008 144.263 1.5959 144.616 1.4495C144.969 1.3031 145.349 1.23804 145.729 1.25887H156.077ZM157.077 1.25887H160V0.615256H157.077V1.25887ZM160 18.604V1.81129H157.077V18.5933L160 18.604Z" fill="url(#paint1_linear_116_150)" fill-opacity="0.2"/>
<defs>
<linearGradient id="paint0_linear_116_150" x1="80" y1="0.604492" x2="80" y2="18.6045" gradientUnits="userSpaceOnUse">
<stop stop-color="#34404F"/>
<stop offset="0.473958" stop-color="#202131"/>
<stop offset="1" stop-color="#090B0F"/>
</linearGradient>
<linearGradient id="paint1_linear_116_150" x1="80" y1="0.604492" x2="80" y2="18.6045" gradientUnits="userSpaceOnUse">
<stop stop-color="white"/>
<stop offset="1" stop-color="white" stop-opacity="0"/>
</linearGradient>
</defs>
</svg>
